<svg width="65" height="64" viewBox="0 0 65 64" fill="none" xmlns="http://www.w3.org/2000/svg">
<path d="M0.65625 32C0.65625 14.3269 14.9831 0 32.6562 0C50.3294 0 64.6562 14.3269 64.6562 32C64.6562 49.6731 50.3294 64 32.6562 64C14.9831 64 0.65625 49.6731 0.65625 32Z" fill="#FFEDD5"/>
<path d="M0.65625 32C0.65625 14.3269 14.9831 0 32.6562 0C50.3294 0 64.6562 14.3269 64.6562 32C64.6562 49.6731 50.3294 64 32.6562 64C14.9831 64 0.65625 49.6731 0.65625 32Z" stroke="#E5E7EB"/>
<path d="M20.6562 20H44.6562V44H20.6562V20Z" stroke="#E5E7EB"/>
<g clip-path="url(#clip0_31_107)">
<path d="M30.5468 20.3421C30.2656 20.0468 29.8437 19.9343 29.45 20.0375C29.0562 20.1406 28.7515 20.4546 28.6484 20.8484L27.9078 23.7781L25.0015 22.9578C24.6078 22.8453 24.1859 22.9578 23.9 23.2437C23.614 23.5296 23.5015 23.9515 23.614 24.3453L24.4343 27.2515L21.5046 27.9968C21.1109 28.0953 20.8015 28.4046 20.6937 28.7984C20.5859 29.1922 20.7031 29.6093 20.9984 29.8906L23.164 32L20.9984 34.1093C20.7031 34.3906 20.5906 34.8125 20.6937 35.2062C20.7968 35.6 21.1109 35.9046 21.5046 36.0078L24.4343 36.7484L23.614 39.6546C23.5015 40.0484 23.614 40.4703 23.9 40.7562C24.1859 41.0421 24.6078 41.1546 25.0015 41.0421L27.9078 40.2218L28.6484 43.1515C28.7468 43.5453 29.0562 43.8547 29.45 43.9625C29.8437 44.0703 30.2609 43.9531 30.5468 43.6625L32.6562 41.4968L34.7656 43.6625C35.0515 43.9531 35.4687 44.0703 35.8625 43.9625C36.2562 43.8547 36.5609 43.5453 36.664 43.1515L37.4046 40.2218L40.3109 41.0421C40.7046 41.1546 41.1265 41.0421 41.4125 40.7562C41.6984 40.4703 41.8109 40.0484 41.6984 39.6546L40.8781 36.7484L43.8078 36.0078C44.2015 35.9093 44.5109 35.6 44.6187 35.2062C44.7265 34.8125 44.6093 34.3953 44.3187 34.1093L42.1531 32L44.3187 29.8906C44.6093 29.6046 44.7265 29.1875 44.6187 28.7937C44.5109 28.4 44.2015 28.0953 43.8078 27.9921L40.8781 27.2515L41.6984 24.3453C41.8109 23.9515 41.6984 23.5296 41.4125 23.2437C41.1265 22.9578 40.7046 22.8453 40.3109 22.9578L37.4046 23.7781L36.6593 20.8484C36.5609 20.4546 36.2515 20.1453 35.8578 20.0375C35.464 19.9296 35.0468 20.0468 34.7656 20.3421L32.6562 22.5078L30.5468 20.3421Z" fill="#EA580C"/>
</g>
<defs>
<clipPath id="clip0_31_107">
<path d="M20.6562 20H44.6562V44H20.6562V20Z" fill="white"/>
</clipPath>
</defs>
</svg>
