<svg width="65" height="64" viewBox="0 0 65 64" fill="none" xmlns="http://www.w3.org/2000/svg">
<path d="M0.328125 32C0.328125 14.3269 14.655 0 32.3281 0C50.0012 0 64.3281 14.3269 64.3281 32C64.3281 49.6731 50.0012 64 32.3281 64C14.655 64 0.328125 49.6731 0.328125 32Z" fill="#FFEDD5"/>
<path d="M0.328125 32C0.328125 14.3269 14.655 0 32.3281 0C50.0012 0 64.3281 14.3269 64.3281 32C64.3281 49.6731 50.0012 64 32.3281 64C14.655 64 0.328125 49.6731 0.328125 32Z" stroke="#E5E7EB"/>
<path d="M17.3281 20H47.3281V44H17.3281V20Z" stroke="#E5E7EB"/>
<g clip-path="url(#clip0_31_96)">
<path d="M21.8281 26C21.8281 24.4087 22.4603 22.8826 23.5855 21.7574C24.7107 20.6321 26.2368 20 27.8281 20C29.4194 20 30.9455 20.6321 32.0708 21.7574C33.196 22.8826 33.8281 24.4087 33.8281 26C33.8281 27.5913 33.196 29.1174 32.0708 30.2426C30.9455 31.3679 29.4194 32 27.8281 32C26.2368 32 24.7107 31.3679 23.5855 30.2426C22.4603 29.1174 21.8281 27.5913 21.8281 26ZM17.3281 42.6078C17.3281 37.9906 21.0688 34.25 25.6859 34.25H29.9703C34.5875 34.25 38.3281 37.9906 38.3281 42.6078C38.3281 43.3766 37.7047 44 36.9359 44H18.7203C17.9516 44 17.3281 43.3766 17.3281 42.6078ZM45.8891 44H39.425C39.6781 43.5594 39.8281 43.0484 39.8281 42.5V42.125C39.8281 39.2797 38.5578 36.725 36.5563 35.0094C36.6688 35.0047 36.7766 35 36.8891 35H39.7672C43.9438 35 47.3281 38.3844 47.3281 42.5609C47.3281 43.3578 46.6812 44 45.8891 44ZM37.5781 32C36.125 32 34.8125 31.4094 33.8609 30.4578C34.7844 29.2109 35.3281 27.6687 35.3281 26C35.3281 24.7438 35.0188 23.5578 34.4703 22.5172C35.3422 21.8797 36.4156 21.5 37.5781 21.5C40.4797 21.5 42.8281 23.8484 42.8281 26.75C42.8281 29.6516 40.4797 32 37.5781 32Z" fill="#EA580C"/>
</g>
<defs>
<clipPath id="clip0_31_96">
<path d="M17.3281 20H47.3281V44H17.3281V20Z" fill="white"/>
</clipPath>
</defs>
</svg>
