<svg width="65" height="64" viewBox="0 0 65 64" fill="none" xmlns="http://www.w3.org/2000/svg">
<path d="M0.984375 32C0.984375 14.3269 15.3113 0 32.9844 0C50.6575 0 64.9844 14.3269 64.9844 32C64.9844 49.6731 50.6575 64 32.9844 64C15.3113 64 0.984375 49.6731 0.984375 32Z" fill="#FFEDD5"/>
<path d="M0.984375 32C0.984375 14.3269 15.3113 0 32.9844 0C50.6575 0 64.9844 14.3269 64.9844 32C64.9844 49.6731 50.6575 64 32.9844 64C15.3113 64 0.984375 49.6731 0.984375 32Z" stroke="#E5E7EB"/>
<path d="M22.4844 20H43.4844V44H22.4844V20Z" stroke="#E5E7EB"/>
<g clip-path="url(#clip0_31_102)">
<path d="M28.4844 20C29.3141 20 29.9844 20.6703 29.9844 21.5V23H35.9844V21.5C35.9844 20.6703 36.6547 20 37.4844 20C38.3141 20 38.9844 20.6703 38.9844 21.5V23H41.2344C42.4766 23 43.4844 24.0078 43.4844 25.25V27.5H22.4844V25.25C22.4844 24.0078 23.4922 23 24.7344 23H26.9844V21.5C26.9844 20.6703 27.6547 20 28.4844 20ZM22.4844 29H43.4844V41.75C43.4844 42.9922 42.4766 44 41.2344 44H24.7344C23.4922 44 22.4844 42.9922 22.4844 41.75V29ZM37.9062 34.2969C38.3469 33.8562 38.3469 33.1438 37.9062 32.7078C37.4656 32.2719 36.7531 32.2672 36.3172 32.7078L31.8641 37.1609L29.6609 34.9578C29.2203 34.5172 28.5078 34.5172 28.0719 34.9578C27.6359 35.3984 27.6312 36.1109 28.0719 36.5469L31.0719 39.5469C31.5125 39.9875 32.225 39.9875 32.6609 39.5469L37.9062 34.2969Z" fill="#EA580C"/>
</g>
<defs>
<clipPath id="clip0_31_102">
<path d="M22.4844 20H43.4844V44H22.4844V20Z" fill="white"/>
</clipPath>
</defs>
</svg>
